<?xml version="1.0" encoding="UTF-8"?>
<svg version="1.1" xmlns="http://www.w3.org/2000/svg" width="64" height="64">
<path d="M0 0 C-0.68757295 4.49343448 -3.00898905 5.84971422 -6.50390625 8.4375 C-8.46106103 10.1209822 -8.46106103 10.1209822 -8 14 C-12.11692867 17.60231259 -15.81580782 17.26360299 -21 17 C-21.495 18.485 -21.495 18.485 -22 20 C-20.081875 19.938125 -20.081875 19.938125 -18.125 19.875 C-15.9453125 19.8046875 -15.9453125 19.8046875 -14 20 C-13.34 20.66 -12.68 21.32 -12 22 C-16.49865471 28.5264574 -16.49865471 28.5264574 -20.1796875 29.6875 C-22.375 29.9375 -22.375 29.9375 -26 30 C-26.76775436 32.80452421 -27.18867798 35.48053982 -27.4375 38.375 C-27.82767387 42.15906718 -28.72240027 45.40675077 -30 49 C-30.36920191 50.99369031 -30.71325582 52.99279077 -31 55 C-31.66 55 -32.32 55 -33 55 C-33.66 52.36 -34.32 49.72 -35 47 C-36.051875 47.103125 -37.10375 47.20625 -38.1875 47.3125 C-42 47 -42 47 -44.9375 44.6875 C-47 42 -47 42 -47 39 C-44.03 38.505 -44.03 38.505 -41 38 C-42.3303125 38.1546875 -42.3303125 38.1546875 -43.6875 38.3125 C-48.00684858 37.90501428 -49.25642975 36.2277297 -52 33 C-49.69 32.01 -47.38 31.02 -45 30 C-47.14522181 28.67630465 -47.14522181 28.67630465 -50.375 29.625 C-54 30 -54 30 -56.4375 28.5625 C-56.953125 28.046875 -57.46875 27.53125 -58 27 C-57.67 26.67 -57.34 26.34 -57 26 C-60.465 24.02 -60.465 24.02 -64 22 C-64 21.01 -64 20.02 -64 19 C-60.89046621 17.4452331 -58.43733239 17.71355563 -55 18 C-51.5625 20 -51.5625 20 -49 22 C-48.34 20.02 -47.68 18.04 -47 16 C-46.01 16 -45.02 16 -44 16 C-42.5337667 18.93246659 -43.02912611 21.67766743 -43.16015625 24.90625 C-43.21151774 27.22255979 -43.21151774 27.22255979 -41 29 C-38.49464087 26.65122581 -37.09435091 24.9088213 -36.734375 21.44140625 C-36.74850858 18.95036325 -36.82630806 16.48475972 -37 14 C-32.16743695 14.41421969 -30.17320782 16.46413986 -27 20 C-25.80404463 17.1628485 -25.80404463 17.1628485 -25 14 C-25.66 13.01 -26.32 12.02 -27 11 C-27.23046875 8.80859375 -27.23046875 8.80859375 -27.1875 6.4375 C-27.18105469 5.65246094 -27.17460938 4.86742187 -27.16796875 4.05859375 C-27 2 -27 2 -26 0 C-23.53199953 1.15173355 -21.95216435 2.04783565 -20 4 C-19.375 6.125 -19.375 6.125 -19 8 C-18.01 7.67 -17.02 7.34 -16 7 C-15.71125 6.21625 -15.4225 5.4325 -15.125 4.625 C-14 2 -14 2 -11.9375 0.125 C-7.7817625 -1.46655904 -4.30537525 -0.77853191 0 0 Z M-34 27 C-34.33 29.64 -34.66 32.28 -35 35 C-35.66 35 -36.32 35 -37 35 C-36.67 36.65 -36.34 38.3 -36 40 C-31.9957657 36.50912907 -30.37328935 34.35048061 -30 29 C-31.32 28.34 -32.64 27.68 -34 27 Z " fill="#63B24D" transform="translate(64,5)"/>
<path d="M0 0 C2.46800047 1.15173355 4.04783565 2.04783565 6 4 C6.26991906 6.68839385 6.08737357 9.29141936 6 12 C4.35 12.66 2.7 13.32 1 14 C-1.105184 10.842224 -1.25289344 10.04602866 -1.1875 6.4375 C-1.18105469 5.65246094 -1.17460938 4.86742187 -1.16796875 4.05859375 C-1 2 -1 2 0 0 Z " fill="#63B54C" transform="translate(38,5)"/>
<path d="M0 0 C2 3 2 3 3.375 6.5625 C4.75174544 10.39045342 4.75174544 10.39045342 9 12 C8.67 15.3 8.34 18.6 8 22 C7.34 22 6.68 22 6 22 C5.01602415 19.4392555 4.03770033 16.87658508 3.0625 14.3125 C2.78470703 13.59126953 2.50691406 12.87003906 2.22070312 12.12695312 C-0.53576939 4.85385095 -0.53576939 4.85385095 -1 1 C-0.67 0.67 -0.34 0.34 0 0 Z " fill="#5EA548" transform="translate(25,38)"/>
<path d="M0 0 C2.76262553 0.3810518 3.84143894 0.83597132 5.8125 2.875 C6.204375 3.57625 6.59625 4.2775 7 5 C6.67 5.99 6.34 6.98 6 8 C4.99403703 7.0479279 3.99538437 6.08812654 3 5.125 C2.443125 4.59132813 1.88625 4.05765625 1.3125 3.5078125 C0 2 0 2 0 0 Z " fill="#5EA448" transform="translate(17,31)"/>
</svg>
